# xmcd
#
# Track frame offsets:
#	183
#	19595
#	34810
#	54495
#	68208
#	84338
#	95250
#	113780
#	129708
#	143818
#	158683
#	176260
#	190533
#	205735
#	221855
#	237128
#
# Disc length: 3387 seconds
#
# Revision: 2
# Processed by: cddbd v1.5.2PL0 Copyright (c) Steve Scherf et al.
# Submitted via: audiograbber 1.83.01
#
DISCID=d00d3910
DTITLE=Various Artist - Hit Collection Vol. 3
DYEAR=1991
DGENRE=Schlager
TTITLE0=Peter Alexander - Die kleine Kneipe
TTITLE1=Vicky Leandros - Die Bouzouki klang durch die Sommernacht
TTITLE2=Vico Torriani - Caprifischer
TTITLE3=Roy Black - Schenk mir eine Nacht
TTITLE4=Katja Ebstein - Wunder gibt es immer wieder
TTITLE5=Caterina Valente - Ganz Paris träumt von der Liebe
TTITLE6=Udo Jürgens - Griechischer Wein
TTITLE7=Andrea Jürgens - Ein Herz für Kinder
TTITLE8=Erik Silvester - Zucker im Kaffee
TTITLE9=Bernd Clüver - Der Junge mit der Mundharmonika
TTITLE10=Ulli Martin - Monika
TTITLE11=Rex Gildo - Borriquito
TTITLE12=Peter Orloff - Immer wenn ich Josy seh
TTITLE13=Costa Cordalis - Du hast ja Tränen in den Augen
TTITLE14=Demis Roussos - Schönes Mädchen aus Arcadia
TTITLE15=Jürgen Marcus - Eine neue Liebe ist wie ein neues Leben
EXTD=
EXTT0=
EXTT1=
EXTT2=
EXTT3=
EXTT4=
EXTT5=
EXTT6=
EXTT7=
EXTT8=
EXTT9=
EXTT10=
EXTT11=
EXTT12=
EXTT13=
EXTT14=
EXTT15=
PLAYORDER=
